# xmcd
#
# Track frame offsets:
#	150
#	18002
#	32112
#	44533
#	58061
#	72270
#	90993
#	108395
#	123217
#	139813
#	151522
#	170835
#	184887
#	207022
#	226713
#
# Disc length: 3241 seconds
#
# Revision: 0
# Processed by: cddbd v1.5.2PL0 Copyright (c) Steve Scherf et al.
# Submitted via: EasyCDDAExtractor 16.0.6.1
#
DISCID=bd0ca70f
DTITLE=Οικονόμου Αργύρης-Μπάστος Ελιάνα - Ελληνική λαϊκή μουσική-Λαϊκή κομπανί
DTITLE=α Βραζιλίας
DYEAR=2000
DGENRE=Ποικίλη
TTITLE0=Οικονόμου Αργύρης-Μπάστος Ελιάνα - Αναστενάζω-Τώρα κλαις [Σ. Καζαντζίδ
TTITLE0=ης-Απ. Καλδάρας]
TTITLE1=Μπάστος Ελιάνα-Οικονόμου Αργύρης - Σήκω χόρεψε συρτάκι [Γιώργος Ζαμπέτ
TTITLE1=ας-Αλ. Σακελλάριος]
TTITLE2=Μπάστος Ελιάνα-Οικονόμου Αργύρης - Ψαροπούλα [Δ. Γκόγκος Μπαγιαντέρας]
TTITLE3=Μπάστος Ελιάνα-Οικονόμου Αργύρης - Αχάριστη καρδιά [Γιώργος Θεοφάνους]
TTITLE4=Οικονόμου Αργύρης-Μπάστος Ελιάνα - Τα παιδιά του Πειραιά [Μ. Χατζιδάκι
TTITLE4=ς]
TTITLE5=Άνευ ερμηνευτού - Τσιφτετέλι [ορχηστρικό, παραδοσιακό]
TTITLE6=Οικονόμου Αργύρης-Μπάστος Ελιάνα - Ωραία που είναι η νύφη μας [παραδοσ
TTITLE6=ιακό]
TTITLE7=Άνευ ερμηνευτού - Ο Έλληνας μεγιστάνας [ορχ., χασάπ.-σάμπα, παρ., διασ
TTITLE7=Λαϊκή κομπ.]
TTITLE8=Οικονόμου Αργύρης-Μπάστος Ελιάνα - Να χαρείς [Γιώργος Μουκίδης]
TTITLE9=Οικονόμου Αργύρης - Ιτιά [παραδοσιακό]
TTITLE10=Οικονόμου Αργύρης-Μπάστος Ελιάνα - Ένα τραγούδι στο λιμάνι [Χρήστος Κ
TTITLE10=υριαζής]
TTITLE11=Μπάστος Ελιάνα-Οικονόμου Αργύρης - Σαμιώτισσα [παραδοσιακό]
TTITLE12=Οικονόμου Αργύρης - Μιά Κυριακή-Αλάνα [Γιάννης Σπανός-Λευτ. Παπαδόπου
TTITLE12=λος]
TTITLE13=Μπάστος Ελιάνα-Οικονόμου Αργύρης - Έλα [Φοίβος-Ναταλία Γερμανού]
TTITLE14=Άνευ ερμηνευτού - Ζορμπάς [ορχηστρικό, Μ. Θεοδωράκης]
EXTD=
EXTT0=
EXTT1=
EXTT2=
EXTT3=
EXTT4=
EXTT5=
EXTT6=
EXTT7=
EXTT8=
EXTT9=
EXTT10=
EXTT11=
EXTT12=
EXTT13=
EXTT14=
PLAYORDER=
